# xmcd
# 
# Track frame offsets:
#     150
#     28495
#     38685
#     53220
#     59038
#     64845
#     76200
#     88717
#     98665
#     126405
#     136253
#     142235
#     154808
#     178038
#     209828
#     236685
# 
# Disc length: 3325
# 
# Revision: 13
# Processed by: cddbd v1.5.2PL0 Copyright (c) Steve Scherf et al.
# Submitted via: fre:ac v1.0.27
# 
DISCID=f40cfb10
DTITLE=Taku Iwasaki - Rurouni Kenshin Tsuioku Hen
DYEAR=1999
DGENRE=Anime Soundtrack
TTITLE0=In Memories "A Boy Meets The Man"
TTITLE1=One on These Night
TTITLE2=Alone Again
TTITLE3=Blood
TTITLE4=Day After Day
TTITLE5=In The Rain
TTITLE6=Quiet Life -pf solo version-
TTITLE7=The Will -pf solo version-
TTITLE8=The Wars of The Last Wolves
TTITLE9=The Will
TTITLE10=Testament
TTITLE11=Talk to The Moon
TTITLE12=Sound of Snow Falling
TTITLE13=Shades of Revolution
TTITLE14=In Memories "KO・TO・WA・RI"
TTITLE15=Quiet Life
EXTD=YEAR: 1999
EXTT0=
EXTT1=
EXTT2=
EXTT3=
EXTT4=
EXTT5=
EXTT6=
EXTT7=
EXTT8=
EXTT9=
EXTT10=
EXTT11=
EXTT12=
EXTT13=
EXTT14=
EXTT15=
PLAYORDER=
